# xmcd
#
# Track frame offsets: 
#        150
#        19370
#        31866
#        47703
#        62985
#        78416
#        111860
#        135283
#        151737
#        165658
#        187942
#        206956
#        226580
#        246194
#        261958
#        285183
#        301333
#        318282
#        332790
#
# Disc length: 4660 seconds
#
# Revision: 0
# Processed by: cddbd v1.5.2PL0 Copyright (c) Steve Scherf et al.
# Submitted via: ExactAudioCopy v1.3
#
DISCID=f8123213
DTITLE=Dana Gillespie - What Memories We Make - The Complete MainMan R
DTITLE=ecordings 1971-1974 [disk1]
DYEAR=2019
DGENRE=Blues, Rock
TTITLE0=Mother, Don't Be Frightened (Previously Uniussed)
TTITLE1=Andy Warhol
TTITLE2=Never Knew (Previously Uniussed)
TTITLE3=All Cut Up On You (Previously Uniussed)
TTITLE4=Lavander Hill (Previously Uniussed)
TTITLE5=Stardom Road, Pts. 1 and 2
TTITLE6=What Memories We Make
TTITLE7=Dizzy Heights
TTITLE8=Andy Warhol
TTITLE9=Backed A Loser
TTITLE10=Weren't Born A Man
TTITLE11=Mother, Don't Be Frightened
TTITLE12=All Cut Up On You
TTITLE13=Eternal Showman
TTITLE14=All Gone
TTITLE15=Lavander Hill (Alternative Version)
TTITLE16=Never Knew (Alternative Version)
TTITLE17=Hold On To Your Fire
TTITLE18=Weren't Born A Man
EXTD=
EXTT0=
EXTT1=
EXTT2=
EXTT3=
EXTT4=
EXTT5=
EXTT6=
EXTT7=
EXTT8=
EXTT9=
EXTT10=
EXTT11=
EXTT12=
EXTT13=
EXTT14=
EXTT15=
EXTT16=
EXTT17=
EXTT18=
PLAYORDER=
